<?xml version="1.0" encoding="utf-8"?>
<!-- Generator: Adobe Illustrator 28.3.0, SVG Export Plug-In . SVG Version: 6.00 Build 0)  -->
<!DOCTYPE svg PUBLIC "-//W3C//DTD SVG 1.1//EN" "http://www.w3.org/Graphics/SVG/1.1/DTD/svg11.dtd" [
	<!ENTITY ns_extend "http://ns.adobe.com/Extensibility/1.0/">
	<!ENTITY ns_ai "http://ns.adobe.com/AdobeIllustrator/10.0/">
	<!ENTITY ns_graphs "http://ns.adobe.com/Graphs/1.0/">
	<!ENTITY ns_vars "http://ns.adobe.com/Variables/1.0/">
	<!ENTITY ns_imrep "http://ns.adobe.com/ImageReplacement/1.0/">
	<!ENTITY ns_sfw "http://ns.adobe.com/SaveForWeb/1.0/">
	<!ENTITY ns_custom "http://ns.adobe.com/GenericCustomNamespace/1.0/">
	<!ENTITY ns_adobe_xpath "http://ns.adobe.com/XPath/1.0/">
]>
<svg version="1.1" id="Ebene_1" xmlns:x="&ns_extend;" xmlns:i="&ns_ai;" xmlns:graph="&ns_graphs;"
	 xmlns="http://www.w3.org/2000/svg" xmlns:xlink="http://www.w3.org/1999/xlink" x="0px" y="0px" viewBox="0 0 141.7 34"
	 style="enable-background:new 0 0 141.7 34;" xml:space="preserve">
<style type="text/css">
	.st0{fill-rule:evenodd;clip-rule:evenodd;fill:#E73037;}
</style>
<metadata>
	<sfw  xmlns="&ns_sfw;">
		<slices></slices>
		<sliceSourceBounds  bottomLeftOrigin="true" height="26.8" width="135.3" x="3" y="-28.6"></sliceSourceBounds>
	</sfw>
</metadata>
<g>
	<g>
		<path class="st0" d="M14.7,22.8c0.2-0.6-0.9-1.3-1.2-0.6c-0.5,1-2.1,2.2-3.6,2.1c-1.7-0.2-3-1.2-3-4.9c0-4,1.4-5.3,3.1-5.3
			c0.8,0,1.3,0.3,1.6,0.5c0.1,0.1,0.1,0.3,0.1,0.4c-0.4,0.3-0.9,1-0.9,1.5c0,1.3,1,1.8,1.9,1.8c1.6-0.1,2.4-1.7,1.9-3
			c-0.6-1.3-2-2.6-4.9-2.6C6,12.7,3,15.4,3,19.5c0,4,2.8,6.4,6.3,6.4C12,25.9,13.9,24.5,14.7,22.8z"/>
		<path class="st0" d="M29.7,24.5c-0.3,0-0.9-0.1-1.2-0.2c-0.1-0.4-0.1-1.4-0.1-2c0-0.9,0.1-4.1,0.1-5c0-3.6-2.4-4.6-4.6-4.6
			c-1.8,0-2.8,1.1-3.5,1.9c0-2.5,0-7.3-0.1-9.2c0-0.4-0.3-0.9-0.6-0.8c-1,0.1-3.6,0.2-4.6,0.2c-0.6,0-0.6,1.1,0,1.1
			c0.8,0,1.2,0,1.5,0.4C17.1,7,17,15.1,17,15.9c0,1.1,0,4.7,0,5.3c0,2.9-0.1,3.1-0.7,3.2c-0.3,0-0.4,0.1-0.9,0.1
			c-0.4,0-0.4,1.1,0,1.1c0.5,0,2.9,0,3.2,0c0.3,0,2.1,0,3.1,0c0.6,0,0.5-1,0-1c-0.4,0-0.8-0.1-1.1-0.2c-0.1-0.4-0.2-1.4-0.2-2.8
			c0-1.2,0-4,0-4.9c0.4-0.6,1.5-1.6,2.8-1.6c1.4,0,1.7,1,1.7,1.9c0,0.5-0.1,5.6-0.2,6.4c-0.1,0.7-0.2,1.1-0.7,1.2
			c-0.2,0-0.4,0.1-0.8,0.1c-0.5,0-0.5,1,0,1c2.4,0,4.9,0,6.3,0C30.5,25.6,30.3,24.5,29.7,24.5z"/>
		<path class="st0" d="M47.8,25.6c0.3,0,0.4-1.1,0-1.1c-0.4,0-1.4,0-1.6-0.3c-0.2-0.2-0.3-1.4-0.4-2.8c0-1.8,0-4.2,0-5.5
			C45.8,14.4,46,6,46,5.5c0-0.6-0.3-0.9-0.7-0.9c-0.9,0.1-3.9,0.2-4.9,0.2c-0.5,0-0.7,1.1,0,1.1c0.7,0,1.4,0.1,1.8,0.2
			c0.2,1,0.1,7.6,0.1,8.3c0,1,0,6.2,0,6.9c0,2.2,0,2.9-0.6,3c-0.3,0.1-0.8,0.1-1.1,0.1c-0.6,0-0.6,1.1,0,1.1c0.5,0,1.6,0,1.9,0
			C42.8,25.6,46.8,25.6,47.8,25.6z"/>
		<path class="st0" d="M56.7,25.6c0.3,0,0.4-1.1,0-1.1c-0.4,0-1.4,0-1.6-0.3c-0.2-0.2-0.3-1.4-0.4-2.8c0-1.8,0-4.2,0-5.5
			c0-1.5,0.2-9.9,0.2-10.4c0-0.6-0.3-0.9-0.7-0.9c-0.9,0.1-3.9,0.2-4.9,0.2c-0.5,0-0.7,1.1,0,1.1C50,6,50.6,6.1,51,6.2
			c0.2,1,0.1,7.6,0.1,8.3c0,1,0,6.2,0,6.9c0,2.2,0,2.9-0.6,3c-0.3,0.1-0.8,0.1-1.1,0.1c-0.6,0-0.6,1.1,0,1.1c0.5,0,1.6,0,1.9,0
			C51.7,25.6,55.6,25.6,56.7,25.6z"/>
		<path class="st0" d="M97.4,25.6c0.5,0,0.4-1.1,0-1.1c-0.4,0-0.9-0.1-1.1-0.2C96,23.9,96,22.7,96,21.5c0-1,0-3.5,0-3.7
			c0.1-4-2.1-5.1-4.3-5.1c-1.4,0-3.4,1.1-4.1,2.2c-0.7-1.3-1.6-2.2-3.7-2.2c-1.3,0-3,0.9-3.7,1.9c0-0.4-0.1-0.8-0.1-1.1
			c-0.2-0.8-0.8-0.8-1.2-0.7c-0.4,0.1-2.9,0.4-3.8,0.4c-0.3,0-0.3,1.2,0,1.2c0.5,0,0.8,0,1.1,0c0.5,0.1,0.6,0.2,0.6,0.8
			c0,0.3,0.1,3.2,0.1,4c0,1,0,2.5,0,3.2c0,1.7,0,1.9-0.8,2c-0.3,0-0.5,0.1-0.9,0.1c-0.4,0-0.5,1.1,0,1.1c0.4,0,2.9,0,3.2,0
			c0.3,0,2.1,0,3,0c0.4,0,0.4-1.1,0-1.1c-0.3,0-0.6,0-0.9-0.1c-0.1-0.3-0.2-0.8-0.2-2.1c0-1.3,0-5.1,0-5.7c0.3-0.7,1.4-1.6,2.7-1.6
			c1.3,0,1.7,0.9,1.7,2.1c0,0.4-0.1,4.8-0.1,5.3c0,1.4-0.1,1.9-0.6,2c-0.2,0-0.3,0.1-0.6,0.1c-0.5,0-0.5,1.1,0,1.1c2,0,5,0,6,0
			c0.4,0,0.3-1.1,0-1.1c-0.3,0-0.8,0-1.1-0.1c-0.1-0.3-0.3-0.8-0.3-2.1c0-1.3,0.1-5.1,0.1-5.7c0.3-0.7,1.4-1.6,2.7-1.6
			c1.3,0,1.7,0.9,1.7,2.1c0,0.4-0.1,4.8-0.1,5.3c-0.1,1.4,0,1.9-0.8,2c-0.2,0-0.3,0.1-0.6,0.1c-0.5,0-0.6,1.1,0,1.1
			C93.2,25.6,95.9,25.6,97.4,25.6z"/>
		<path class="st0" d="M122,25.6c0.6,0,0.6-1.1,0-1.1c-0.4,0-0.9-0.1-1.1-0.2c-0.3-0.4-0.2-1.4-0.2-2.5c0-1,0-3.7,0-3.9
			c0.1-4-2.3-5.1-4.5-5.1c-1.5,0-3,0.9-3.7,1.9c0-0.4-0.1-0.8-0.1-1.1c-0.2-0.8-0.8-0.8-1.2-0.7c-0.4,0.1-3,0.4-3.9,0.4
			c-0.3,0-0.3,1.2,0,1.2c0.5,0,0.8,0,1.1,0c0.5,0.1,0.6,0.2,0.6,0.8c0,0.3,0.1,3.2,0.1,4c0,1,0,2.5,0,3.2c0,1.7,0,1.9-0.8,2
			c-0.3,0-0.5,0.1-0.9,0.1c-0.5,0-0.5,1.1,0,1.1c0.4,0,2.9,0,3.2,0c0.3,0,2.2,0,3.1,0c0.5,0,0.5-1.1,0-1.1c-0.3,0-0.7,0-1-0.1
			c-0.1-0.3-0.2-0.8-0.2-2.1c0-1.3,0-5.1,0-5.6c0.3-0.7,1.5-1.7,2.7-1.7c1.3,0,1.7,1,1.7,2.2c0,0.4-0.1,4.7-0.1,5.2
			c-0.1,1.4-0.2,1.9-0.9,2c-0.2,0-0.3,0.1-0.6,0.1c-0.6,0-0.7,1.1,0,1.1C117.6,25.6,120.5,25.6,122,25.6z"/>
		<path class="st0" d="M71,18.3c0-4.4,1.3-9.6,4.5-12.6c0-0.3-0.5-0.5-0.8-0.6c-4.8,2.6-7,8-7,13.1c0,5.2,2.2,10.6,7,13.1
			c0.4,0,0.8-0.3,0.8-0.6C72.2,27.9,71,22.7,71,18.3z"/>
		<path class="st0" d="M37.3,8.8c0-1.6-1.1-2.2-2.1-2.2c-0.9,0-2.2,0.6-2.2,2.2s1.5,2.1,2.1,2.1C35.8,10.8,37.3,10.3,37.3,8.8z
			 M38.9,25.6c0.6,0,0.5-1.1,0-1.1c-0.3,0-1.2-0.1-1.4-0.2c-0.1-0.1-0.2-0.3-0.3-1.3c-0.1-1.2-0.1-2.9-0.1-4.1
			c0-1.8-0.1-3.9,0.1-5.3c0-0.8-0.4-1-1-0.9c-0.4,0.1-3.6,0.4-4.5,0.4c-0.3,0-0.4,1.3,0,1.3c0.5,0,1,0,1.1,0
			c0.6,0.1,0.5,0.2,0.6,0.9c0.1,0.3,0.1,2.8,0.1,3.9c0,1.1,0,2.5,0,3.2c0,1.8-0.1,1.9-0.8,2c-0.3,0-0.6,0.1-0.9,0.1
			c-0.5,0-0.5,1.1,0,1.1c0.5,0,3.4,0,3.7,0C35.9,25.6,37.8,25.6,38.9,25.6z"/>
		<path class="st0" d="M64.1,8.8c0-1.6-1.1-2.2-2.1-2.2c-0.9,0-2.2,0.6-2.2,2.2s1.4,2.1,2.1,2.1C62.7,10.8,64.1,10.3,64.1,8.8z
			 M65.7,25.6c0.6,0,0.5-1.1,0-1.1c-0.3,0-1.2-0.1-1.4-0.2C64.2,24.2,64,24,64,23.1c-0.1-1.2-0.1-2.9-0.1-4.1c0-1.8-0.1-3.9,0.1-5.3
			c0-0.8-0.4-1-1-0.9c-0.4,0.1-3.6,0.4-4.5,0.4c-0.3,0-0.4,1.3,0,1.3c0.5,0,1,0,1.1,0c0.6,0.1,0.5,0.2,0.6,0.9
			c0.1,0.3,0.1,2.8,0.1,3.9c0,1.1,0,2.5,0,3.2c0,1.8-0.1,1.9-0.8,2c-0.3,0-0.6,0.1-0.9,0.1c-0.5,0-0.5,1.1,0,1.1c0.5,0,3.4,0,3.7,0
			C62.8,25.6,64.7,25.6,65.7,25.6z"/>
		<path class="st0" d="M104.4,8.8c0-1.6-1.1-2.2-2.1-2.2c-0.9,0-2.2,0.6-2.2,2.2s1.4,2.1,2.1,2.1C102.9,10.8,104.4,10.3,104.4,8.8z
			 M105.9,25.6c0.6,0,0.5-1.1,0-1.1c-0.3,0-1.2-0.1-1.4-0.2c-0.1-0.1-0.2-0.3-0.3-1.3c-0.1-1.2-0.1-2.9-0.1-4.1
			c0-1.8-0.1-3.9,0.1-5.3c0-0.8-0.4-1-1-0.9c-0.4,0.1-3.6,0.4-4.5,0.4c-0.3,0-0.4,1.3,0,1.3c0.5,0,1,0,1.1,0
			c0.6,0.1,0.5,0.2,0.6,0.9c0.1,0.3,0.1,2.8,0.1,3.9c0,1.1,0,2.5,0,3.2c0,1.8-0.1,1.9-0.8,2c-0.3,0-0.6,0.1-0.9,0.1
			c-0.5,0-0.5,1.1,0,1.1c0.5,0,3.4,0,3.7,0C103,25.6,104.9,25.6,105.9,25.6z"/>
		<path class="st0" d="M137.7,25.4c0.8,0,0.7-1.1,0-1.1c-0.4,0-0.6,0-0.9-0.1c-0.6-0.1-0.7-0.3-0.8-1c-0.1-0.7,0-1.3,0-3.7
			c0-2.9,0.2-12.1,0.3-14.4c0-0.3-0.2-0.5-0.6-0.5c-1.4,0-3.1,0.1-4.6,0.3c-1.1,0.1-0.6,1.2,0,1.1c0.2,0,0.3,0,0.6-0.1
			c1-0.1,1.1,0.4,1,1.4c-0.1,1.1-0.1,5-0.1,6.5c-0.7-0.7-1.8-1.1-3.2-1.1c-3.4,0-6.4,2.1-6.4,6.5c0,4.1,2.5,6.5,6,6.5
			c1.6,0,2.7-0.5,3.6-1.6c0,0.3,0.1,0.5,0.2,0.9c0.2,0.6,0.9,0.7,1.2,0.6C134.4,25.8,136.3,25.4,137.7,25.4z M132.7,20.4
			c-0.2,2.4-1.2,3.9-2.9,3.9c-2.1,0-2.8-1.9-2.8-4.8c0-3.2,0.6-5.1,3-5.1c1.9,0,2.7,1.5,2.7,3.5C132.7,18.3,132.7,19.9,132.7,20.4z"
			/>
	</g>
</g>
</svg>
